<?xml version="1.0" standalone="no"?>
<!DOCTYPE svg PUBLIC "-//W3C//DTD SVG 20010904//EN"
 "http://www.w3.org/TR/2001/REC-SVG-20010904/DTD/svg10.dtd">
<svg version="1.0" xmlns="http://www.w3.org/2000/svg"
 width="149.000000pt" height="149.000000pt" viewBox="0 0 149.000000 149.000000"
 preserveAspectRatio="xMidYMid meet">
<metadata>
Created by potrace 1.11, written by Peter Selinger 2001-2013
</metadata>
<g transform="translate(0.000000,149.000000) scale(0.100000,-0.100000)"
fill="#000000" stroke="none">
<path d="M251 1225 c-78 -89 11 -212 124 -172 17 6 42 -14 138 -111 l117 -118
-17 -42 c-21 -48 -8 -45 -233 -67 l-154 -15 -21 24 c-48 57 -111 62 -161 12
-28 -28 -34 -42 -34 -76 0 -34 6 -48 34 -76 38 -38 77 -44 126 -19 32 16 60
61 60 95 0 11 6 20 13 20 6 0 88 9 182 20 93 11 169 18 170 17 0 -1 10 -23 23
-50 l22 -48 -72 -89 c-72 -90 -82 -99 -93 -80 -3 6 -28 10 -54 10 -39 0 -53
-5 -74 -26 -89 -89 18 -233 129 -174 46 25 68 95 43 141 -9 18 -2 31 44 92 86
111 94 119 118 106 26 -14 101 -14 126 0 17 8 30 -1 91 -62 70 -71 71 -73 65
-114 -7 -53 9 -94 46 -116 83 -49 186 24 161 115 -20 71 -101 107 -158 70 -22
-15 -25 -13 -83 44 -70 68 -84 90 -71 107 5 7 15 29 21 49 14 43 7 40 230 88
l144 30 34 -35 c29 -29 41 -35 78 -35 122 0 147 171 31 210 -19 6 -46 8 -60 4
-30 -7 -76 -57 -76 -82 0 -9 -4 -22 -8 -29 -7 -12 -309 -83 -351 -83 -11 0
-22 9 -26 19 -3 11 -20 35 -36 52 l-31 33 36 75 c33 71 38 76 73 82 53 9 93
57 93 110 0 53 -51 109 -99 109 -48 0 -91 -27 -107 -67 -19 -45 -10 -85 27
-122 l29 -30 -37 -75 c-37 -76 -37 -76 -78 -76 -22 0 -53 -7 -70 -16 l-29 -15
-118 119 -118 119 16 32 c36 72 -17 151 -101 151 -37 0 -47 -5 -74 -35z"/>
</g>
</svg>
